<svg xmlns="http://www.w3.org/2000/svg" xmlns:xlink="http://www.w3.org/1999/xlink" version="1.1" width="26.925" height="19.951" enable-background="new 0 0 26.925 19.951" xml:space="preserve"><rect id="backgroundrect" width="100%" height="100%" x="0" y="0" fill="none" stroke="none"/>



<g class="currentLayer" style=""><title>Layer 1</title><path fill-rule="evenodd" clip-rule="evenodd" fill="#ffc600" d="M0.825,0H26.1c0.454,0,0.825,0.371,0.825,0.825v1.351  C26.925,2.629,26.554,3,26.1,3H0.825C0.371,3,0,2.629,0,2.175V0.825C0,0.371,0.371,0,0.825,0L0.825,0z" id="svg_1" class="" fill-opacity="1"/><path fill-rule="evenodd" clip-rule="evenodd" fill="#ffc600" d="M0.825,9.075H26.1c0.454,0,0.825,0.371,0.825,0.825v1.35  c0,0.454-0.371,0.825-0.825,0.825H0.825C0.371,12.075,0,11.704,0,11.25V9.9C0,9.446,0.371,9.075,0.825,9.075L0.825,9.075z" id="svg_2" class="" fill-opacity="1"/><path fill-rule="evenodd" clip-rule="evenodd" fill="#ffc600" d="M0.825,16.95H26.1c0.454,0,0.825,0.371,0.825,0.825v1.351  c0,0.454-0.371,0.825-0.825,0.825H0.825C0.371,19.951,0,19.58,0,19.125v-1.351C0,17.321,0.371,16.95,0.825,16.95L0.825,16.95z" id="svg_3" class="selected" fill-opacity="1"/></g></svg>