<svg xmlns="http://www.w3.org/2000/svg" xmlns:xlink="http://www.w3.org/1999/xlink" version="1.1" width="20.476" height="20.476" enable-background="new 0 0 20.476 20.476" xml:space="preserve"><rect id="backgroundrect" width="100%" height="100%" x="0" y="0" fill="none" stroke="none"/>


<g class="currentLayer" style=""><title>Layer 1</title><g id="Layer_1" class="" fill-opacity="1" fill="#ffc600">
	<path fill-rule="evenodd" clip-rule="evenodd" fill="#ffc600" d="M0.241,18.113L18.113,0.241c0.32-0.321,0.846-0.321,1.167,0   l0.954,0.955c0.321,0.321,0.321,0.846,0,1.167L2.362,20.234c-0.321,0.321-0.845,0.321-1.167,0l-0.955-0.955   C-0.08,18.959-0.08,18.435,0.241,18.113L0.241,18.113z" id="svg_1"/>
</g><g id="Layer_1_copy" class="selected" fill-opacity="1" fill="#ffc600">
	<path fill-rule="evenodd" clip-rule="evenodd" fill="#ffc600" d="M18.113,20.235L0.241,2.362c-0.321-0.32-0.321-0.846,0-1.167   l0.955-0.954c0.321-0.321,0.846-0.321,1.167,0l17.872,17.872c0.321,0.321,0.321,0.846,0,1.167l-0.955,0.954   C18.959,20.556,18.435,20.556,18.113,20.235L18.113,20.235z" id="svg_2"/>
</g></g></svg>